<?xml version="1.0" encoding="iso-8859-1"?>
<!-- Uploaded to: SVG Repo, www.svgrepo.com, Generator: SVG Repo Mixer Tools -->
<svg height="800px" width="800px" version="1.1" id="Layer_1" xmlns="http://www.w3.org/2000/svg" xmlns:xlink="http://www.w3.org/1999/xlink" 
	 viewBox="0 0 511.999 511.999" xml:space="preserve">
<g>
	<path style="fill:#394049;" d="M255.997,106.693c-7.277,0-13.176-5.899-13.176-13.176V42.278c0-7.277,5.899-13.176,13.176-13.176
		c7.276,0,13.176,5.899,13.176,13.176v51.239C269.172,100.795,263.273,106.693,255.997,106.693z"/>
	<path style="fill:#394049;" d="M193.983,482.898c-41.461,0-75.192-33.731-75.192-75.193v-11.143h26.351v11.143
		c0,26.93,21.91,48.84,48.84,48.84s48.84-21.91,48.84-48.84v-166.67h26.351v166.67C269.176,449.166,235.445,482.898,193.983,482.898
		z"/>
</g>
<path style="opacity:0.3;enable-background:new    ;" d="M145.142,407.705v-11.143h-26.351v11.143
	c0,6.074,0.743,11.976,2.109,17.637h27.552C146.323,419.868,145.142,413.923,145.142,407.705z"/>
<path style="opacity:0.3;enable-background:new    ;" d="M242.823,241.035v38.136c4.342-0.383,8.734-0.599,13.176-0.599
	s8.833,0.216,13.176,0.599v-38.136H242.823z"/>
<path style="fill:#F7D64C;" d="M256,69.523c-117.727,0-216.979,79.037-247.626,186.939c-2.469,8.692,5.864,16.609,14.35,13.505
	c15.859-5.8,32.988-8.965,50.855-8.965c31.623,0,60.93,9.915,84.985,26.804c3.733,2.621,8.719,2.621,12.451,0
	c24.055-16.888,53.361-26.804,84.985-26.804c31.623,0,60.93,9.915,84.984,26.804c3.733,2.62,8.72,2.62,12.451,0
	c24.054-16.889,53.361-26.804,84.985-26.804c17.867,0,34.996,3.165,50.855,8.965c8.486,3.104,16.818-4.814,14.35-13.505
	C472.978,148.56,373.726,69.523,256,69.523z"/>
<path style="fill:#7DBF63;" d="M256,69.523c-117.727,0-216.979,79.037-247.626,186.939c-2.469,8.692,5.864,16.609,14.35,13.505
	c15.859-5.8,32.988-8.965,50.855-8.965c31.623,0,60.93,9.915,84.985,26.804c3.733,2.621,8.719,2.621,12.451,0
	c24.055-16.888,53.361-26.804,84.985-26.804c31.623,0,60.93,9.915,84.984,26.804c3.733,2.62,8.72,2.62,12.451,0
	c24.054-16.889,53.361-26.804,84.985-26.804c17.867,0,34.996,3.165,50.855,8.965c8.486,3.104,16.818-4.814,14.35-13.505
	C472.978,148.56,373.726,69.523,256,69.523z"/>
<path style="fill:#83D8DD;" d="M256,69.523c-117.727,0-216.979,79.037-247.625,186.939c-2.469,8.692,5.863,16.609,14.349,13.505
	c15.859-5.8,32.988-8.965,50.855-8.965c31.623,0,60.93,9.915,84.985,26.804c1.663,1.168,3.576,1.785,5.515,1.912
	C146.342,219.156,194.21,96.104,256,69.523z"/>
<g>
	<path style="fill:#F7D64C;" d="M256,69.523c-61.789,26.58-109.658,149.633-91.921,220.196c2.414,0.159,4.868-0.459,6.937-1.912
		c24.055-16.888,53.361-26.804,84.985-26.804c31.623,0,60.93,9.915,84.984,26.804c2.07,1.453,4.523,2.071,6.937,1.912
		C365.658,219.156,317.789,96.104,256,69.523z"/>
	<path style="fill:#F7D64C;" d="M146.522,355.379h-29.11c-2.693,0-4.876,2.183-4.876,4.876v47.908c0,2.693,2.183,4.876,4.876,4.876
		h29.11c2.693,0,4.876-2.183,4.876-4.876v-47.908C151.397,357.561,149.214,355.379,146.522,355.379z"/>
</g>
<path style="opacity:0.1;enable-background:new    ;" d="M123.04,407.41c-2.693,0-4.876-2.183-4.876-4.876v-47.155h-0.752
	c-2.693,0-4.876,2.183-4.876,4.876v47.908c0,2.693,2.183,4.876,4.876,4.876h29.11c2.693,0,4.876-2.183,4.876-4.876v-0.752H123.04
	V407.41z"/>
<path style="opacity:0.15;fill:#FFFFFF;enable-background:new    ;" d="M146.522,355.379h-9.476
	c-1.287,2.926-2.007,6.159-2.007,9.56c0,10.539,6.862,19.469,16.359,22.584v-27.268
	C151.397,357.561,149.214,355.379,146.522,355.379z"/>
<path style="opacity:0.1;enable-background:new    ;" d="M503.625,256.463c-0.224-0.792-0.466-1.577-0.699-2.366
	c-2.076,0.642-4.394,0.639-6.724-0.232c-15.497-5.8-32.233-8.965-49.693-8.965c-30.9,0-62.831,9.915-86.335,26.804
	c-3.647,2.621-8.52,2.621-12.167,0c-23.505-16.889-48.847-26.804-79.747-26.804s-72.712,9.915-96.217,26.804
	c-3.647,2.621-8.52,2.621-12.167,0c-23.505-16.888-38.563-24.468-69.865-26.804c-17.411-1.3-34.196,3.165-49.693,8.965
	c-8.292,3.104-16.433-4.814-14.021-13.505c11.131-40.11,31.532-76.226,58.674-105.781c-36.06,32.089-63.043,74.159-76.599,121.884
	c-2.469,8.692,5.863,16.609,14.349,13.505c15.859-5.8,32.988-8.965,50.855-8.965c31.623,0,60.93,9.915,84.985,26.804
	c3.733,2.621,8.719,2.621,12.451,0c24.055-16.888,53.361-26.804,84.985-26.804c31.623,0,60.93,9.915,84.984,26.804
	c3.733,2.62,8.72,2.62,12.451,0c24.054-16.889,53.361-26.804,84.985-26.804c17.868,0,34.996,3.165,50.855,8.965
	C497.762,273.072,506.093,265.155,503.625,256.463z"/>
<g>
	<path style="opacity:0.2;fill:#FFFFFF;enable-background:new    ;" d="M336.346,82.323c13.188,54.568,62.331,95.102,120.949,95.102
		c2.707,0,5.392-0.096,8.056-0.267C433.838,133.18,388.813,99.549,336.346,82.323z"/>
	<circle style="opacity:0.2;fill:#FFFFFF;enable-background:new    ;" cx="361.296" cy="216.35" r="31.368"/>
</g>
<path d="M511.263,254.294c-15.457-54.423-48.828-103.456-93.964-138.064c-41.013-31.448-89.111-49.847-140.187-53.821V42.278
	c0-11.644-9.473-21.115-21.115-21.115c-11.644,0-21.115,9.473-21.115,21.115v20.13c-51.073,3.975-99.168,22.374-140.18,53.82
	C49.565,150.838,16.195,199.87,0.737,254.293c-1.974,6.95,0.084,14.318,5.37,19.228c5.232,4.859,12.643,6.353,19.343,3.904
	c15.391-5.629,31.584-8.483,48.129-8.483c28.98,0,56.79,8.771,80.422,25.362c3.227,2.265,7.007,3.398,10.788,3.398
	c3.78,0,7.562-1.133,10.788-3.398c17.823-12.513,38.022-20.571,59.307-23.78v137.18c0,22.553-18.348,40.901-40.901,40.901
	c-18.83,0-34.869-12.704-39.529-30.398c2.968-2.349,4.882-5.975,4.882-10.046v-47.908c0-7.066-5.749-12.816-12.815-12.816h-29.11
	c-7.066,0-12.816,5.749-12.816,12.816v47.908c0,5.035,2.925,9.388,7.158,11.482c5.848,40.378,40.839,71.193,82.228,71.193
	c45.839,0,83.132-37.293,83.132-83.132V270.525c21.285,3.209,41.484,11.267,59.307,23.781c6.453,4.529,15.122,4.529,21.576,0
	c23.632-16.592,51.441-25.362,80.422-25.362c16.545,0,32.738,2.854,48.128,8.483c6.699,2.45,14.112,0.955,19.343-3.904
	C511.179,268.611,513.236,261.244,511.263,254.294z M250.761,42.278c0-2.888,2.349-5.236,5.236-5.236
	c2.888,0,5.236,2.349,5.236,5.236v19.358c-1.741-0.033-3.486-0.053-5.233-0.053c-1.75,0-3.496,0.019-5.239,0.053V42.278z
	 M120.476,363.317h22.982v41.781h-22.982C120.476,405.098,120.476,363.317,120.476,363.317z M261.236,407.705
	c0,37.083-30.17,67.253-67.253,67.253c-32.237,0-59.678-23.11-65.895-53.981h10.696c6.017,25.244,28.602,43.508,55.2,43.508
	c31.309,0,56.78-25.471,56.78-56.78V269.042c1.741-0.064,3.486-0.098,5.236-0.098s3.496,0.035,5.236,0.098V407.705L261.236,407.705z
	 M495.085,261.887c-0.506,0.469-1.583,1.176-3.083,0.625c-17.143-6.269-35.172-9.448-53.582-9.448
	c-32.264,0-63.228,9.768-89.545,28.245c-0.995,0.699-2.333,0.699-3.329,0c-26.318-18.478-57.283-28.246-89.546-28.246
	s-63.228,9.768-89.546,28.246c-0.995,0.699-2.332,0.699-3.327,0c-26.318-18.478-57.283-28.246-89.546-28.246
	c-18.412,0-36.439,3.179-53.583,9.448c-1.503,0.552-2.578-0.156-3.083-0.625c-0.435-0.403-1.392-1.529-0.901-3.254
	c14.531-51.16,45.907-97.257,88.351-129.803C148.189,95.224,200.625,77.461,256,77.461s107.811,17.763,151.637,51.367
	c42.443,32.545,73.821,78.643,88.35,129.803C496.477,260.359,495.52,261.483,495.085,261.887z M380.072,141.055
	c-4.386,0-7.94,3.555-7.94,7.94v9.092c0,4.385,3.554,7.94,7.94,7.94s7.94-3.555,7.94-7.94v-9.092
	C388.012,144.61,384.457,141.055,380.072,141.055z M131.928,141.055c-4.385,0-7.94,3.555-7.94,7.94v9.092
	c0,4.385,3.555,7.94,7.94,7.94s7.94-3.555,7.94-7.94v-9.092C139.867,144.61,136.312,141.055,131.928,141.055z M298.814,182.132
	c-4.386,0-7.94,3.555-7.94,7.94c0,7.426-6.042,13.468-13.468,13.468c-7.426,0-13.468-6.042-13.468-13.468
	c0-4.385-3.554-7.94-7.94-7.94c-4.385,0-7.94,3.555-7.94,7.94c0,7.426-6.042,13.468-13.468,13.468s-13.467-6.042-13.467-13.468
	c0-4.385-3.555-7.94-7.94-7.94s-7.94,3.555-7.94,7.94c0,16.182,13.165,29.347,29.346,29.347c8.435,0,16.049-3.576,21.407-9.293
	c5.358,5.717,12.972,9.293,21.407,9.293c16.182,0,29.347-13.165,29.347-29.347C306.753,185.687,303.2,182.132,298.814,182.132z"/>
</svg>